<?xml version="1.0" encoding="UTF-8" standalone="no"?>
<!-- Created with Inkscape (http://www.inkscape.org/) -->

<svg
   xmlns:dc="http://purl.org/dc/elements/1.1/"
   xmlns:cc="http://creativecommons.org/ns#"
   xmlns:rdf="http://www.w3.org/1999/02/22-rdf-syntax-ns#"
   xmlns:svg="http://www.w3.org/2000/svg"
   xmlns="http://www.w3.org/2000/svg"
   xmlns:sodipodi="http://sodipodi.sourceforge.net/DTD/sodipodi-0.dtd"
   xmlns:inkscape="http://www.inkscape.org/namespaces/inkscape"
   width="210mm"
   height="297mm"
   viewBox="0 0 210 297"
   version="1.1"
   id="svg8"
   inkscape:version="0.92.3 (2405546, 2018-03-11)"
   sodipodi:docname="champBotSprites.svg">
  <defs
     id="defs2">
    <inkscape:path-effect
       effect="spiro"
       id="path-effect4572"
       is_visible="true" />
    <inkscape:path-effect
       effect="spiro"
       id="path-effect4568"
       is_visible="true" />
    <inkscape:path-effect
       effect="spiro"
       id="path-effect4564"
       is_visible="true" />
    <inkscape:path-effect
       effect="spiro"
       id="path-effect4560"
       is_visible="true" />
  </defs>
  <sodipodi:namedview
     id="base"
     pagecolor="#ffffff"
     bordercolor="#666666"
     borderopacity="1.0"
     inkscape:pageopacity="0.0"
     inkscape:pageshadow="2"
     inkscape:zoom="2.8284271"
     inkscape:cx="266.72522"
     inkscape:cy="463.73214"
     inkscape:document-units="px"
     inkscape:current-layer="layer1"
     showgrid="false"
     inkscape:snap-object-midpoints="true"
     inkscape:snap-center="true"
     inkscape:window-width="2880"
     inkscape:window-height="1586"
     inkscape:window-x="8629"
     inkscape:window-y="85"
     inkscape:window-maximized="1"
     inkscape:snap-bbox="true"
     inkscape:bbox-paths="true"
     inkscape:snap-bbox-edge-midpoints="true"
     inkscape:bbox-nodes="true"
     inkscape:snap-bbox-midpoints="true"
     inkscape:object-paths="true"
     inkscape:snap-intersection-paths="true"
     inkscape:snap-smooth-nodes="true"
     inkscape:snap-midpoints="true" />
  <metadata
     id="metadata5">
    <rdf:RDF>
      <cc:Work
         rdf:about="">
        <dc:format>image/svg+xml</dc:format>
        <dc:type
           rdf:resource="http://purl.org/dc/dcmitype/StillImage" />
        <dc:title />
      </cc:Work>
    </rdf:RDF>
  </metadata>
  <g
     inkscape:label="Layer 1"
     inkscape:groupmode="layer"
     id="layer1">
    <rect
       style="opacity:1;fill:#3e374e;fill-opacity:1;fill-rule:nonzero;stroke:#f0f0ee;stroke-width:0.5291667;stroke-linecap:round;stroke-miterlimit:4;stroke-dasharray:none;stroke-dashoffset:0;stroke-opacity:1"
       id="rect815"
       width="38.099998"
       height="56.620834"
       x="12.68513"
       y="130.30981"
       ry="0"
       inkscape:export-filename="D:\Development\ChampBot\Assets\Sprites\playerCard.png"
       inkscape:export-xdpi="192"
       inkscape:export-ydpi="192" />
    <rect
       style="opacity:1;fill:#a4a1c1;fill-opacity:1;fill-rule:nonzero;stroke:none;stroke-width:4.23177099;stroke-linecap:round;stroke-miterlimit:4;stroke-dasharray:none;stroke-dashoffset:0;stroke-opacity:1"
       id="rect823"
       width="9.260417"
       height="9.260417"
       x="12.949767"
       y="164.97025"
       inkscape:export-filename="D:\Development\ChampBot\Assets\Sprites\playerCard.png"
       inkscape:export-xdpi="192"
       inkscape:export-ydpi="192" />
    <rect
       style="opacity:1;fill:#a4a19b;fill-opacity:1;fill-rule:nonzero;stroke:#f0f0ee;stroke-width:0.5291667;stroke-linecap:round;stroke-miterlimit:4;stroke-dasharray:none;stroke-dashoffset:0;stroke-opacity:1"
       id="rect817"
       width="38.099998"
       height="6.3499999"
       x="12.68513"
       y="130.30981"
       inkscape:export-filename="D:\Development\ChampBot\Assets\Sprites\playerCard.png"
       inkscape:export-xdpi="192"
       inkscape:export-ydpi="192" />
    <rect
       style="opacity:1;fill:#a4a1c1;fill-opacity:1;fill-rule:nonzero;stroke:none;stroke-width:4.23177099;stroke-linecap:round;stroke-miterlimit:4;stroke-dasharray:none;stroke-dashoffset:0;stroke-opacity:1"
       id="rect823-7"
       width="9.260417"
       height="9.260417"
       x="41.260181"
       y="164.97023"
       inkscape:export-filename="D:\Development\ChampBot\Assets\Sprites\playerCard.png"
       inkscape:export-xdpi="192"
       inkscape:export-ydpi="192" />
    <rect
       style="opacity:1;fill:#a4a19b;fill-opacity:1;fill-rule:nonzero;stroke:#f0f0ee;stroke-width:0.5291667;stroke-linecap:round;stroke-miterlimit:4;stroke-dasharray:none;stroke-dashoffset:0;stroke-opacity:1"
       id="rect819"
       width="38.099998"
       height="12.7"
       x="12.68513"
       y="174.23065"
       inkscape:export-filename="D:\Development\ChampBot\Assets\Sprites\playerCard.png"
       inkscape:export-xdpi="192"
       inkscape:export-ydpi="192" />
    <rect
       style="opacity:1;fill:#a4a1c1;fill-opacity:1;fill-rule:nonzero;stroke:none;stroke-width:3.20036006;stroke-linecap:round;stroke-miterlimit:4;stroke-dasharray:none;stroke-dashoffset:0;stroke-opacity:1"
       id="rect821"
       width="15.875"
       height="3.7041667"
       x="23.797686"
       y="168.67436"
       inkscape:export-filename="D:\Development\ChampBot\Assets\Sprites\playerCard.png"
       inkscape:export-xdpi="192"
       inkscape:export-ydpi="192" />
    <rect
       style="opacity:1;fill:#a4a1c1;fill-opacity:1;fill-rule:nonzero;stroke:none;stroke-width:3.32299995;stroke-linecap:round;stroke-miterlimit:4;stroke-dasharray:none;stroke-dashoffset:0;stroke-opacity:1"
       id="rect823-1"
       width="6.6618304"
       height="7.9375"
       x="76.185822"
       y="178.17374" />
    <text
       xml:space="preserve"
       style="font-style:normal;font-variant:normal;font-weight:normal;font-stretch:normal;font-size:5.64444447px;line-height:1.25;font-family:'Bloomer DEMO';-inkscape-font-specification:'Bloomer DEMO';letter-spacing:0px;word-spacing:0px;fill:#000000;fill-opacity:1;stroke:none;stroke-width:0.26458332"
       x="15.591517"
       y="168.3936"
       id="text842"
       inkscape:export-filename="D:\Development\ChampBot\Assets\Sprites\playerCard.png"
       inkscape:export-xdpi="192"
       inkscape:export-ydpi="192"><tspan
         sodipodi:role="line"
         id="tspan840"
         x="15.591517"
         y="168.3936"
         style="font-size:4.23333311px;stroke-width:0.26458332">AV</tspan></text>
    <text
       xml:space="preserve"
       style="font-style:normal;font-variant:normal;font-weight:normal;font-stretch:normal;font-size:5.64444447px;line-height:1.25;font-family:'Bloomer DEMO';-inkscape-font-specification:'Bloomer DEMO';letter-spacing:0px;word-spacing:0px;fill:#000000;fill-opacity:1;stroke:none;stroke-width:0.26458332"
       x="43.646225"
       y="168.17946"
       id="text842-2"
       inkscape:export-filename="D:\Development\ChampBot\Assets\Sprites\playerCard.png"
       inkscape:export-xdpi="192"
       inkscape:export-ydpi="192"><tspan
         sodipodi:role="line"
         id="tspan840-9"
         x="43.646225"
         y="168.17946"
         style="font-size:4.23333311px;stroke-width:0.26458332">Def</tspan></text>
    <text
       xml:space="preserve"
       style="font-style:normal;font-variant:normal;font-weight:normal;font-stretch:normal;font-size:4.46183586px;line-height:1.25;font-family:'Bloomer DEMO';-inkscape-font-specification:'Bloomer DEMO';letter-spacing:0px;word-spacing:0px;fill:#000000;fill-opacity:1;stroke:none;stroke-width:0.20914854"
       x="34.268692"
       y="171.61234"
       id="text842-7"
       inkscape:export-filename="D:\Development\ChampBot\Assets\Sprites\playerCard.png"
       inkscape:export-xdpi="192"
       inkscape:export-ydpi="192"><tspan
         sodipodi:role="line"
         id="tspan840-0"
         x="34.268692"
         y="171.61234"
         style="font-size:3.34637666px;stroke-width:0.20914854">spp</tspan></text>
    <rect
       style="opacity:1;fill:#a4a19b;fill-opacity:1;fill-rule:nonzero;stroke:#f0f0ee;stroke-width:0.52916667;stroke-linecap:round;stroke-miterlimit:4;stroke-dasharray:none;stroke-dashoffset:0;stroke-opacity:1"
       id="rect817-0"
       width="107.15625"
       height="6.3499999"
       x="-26.431875"
       y="234.18036"
       inkscape:export-filename="D:\Development\ChampBot\Assets\Sprites\champDisplay.png"
       inkscape:export-xdpi="192"
       inkscape:export-ydpi="192" />
    <rect
       style="opacity:1;fill:#3e374e;fill-opacity:1;fill-rule:nonzero;stroke:none;stroke-width:0.24949321;stroke-linecap:round;stroke-miterlimit:4;stroke-dasharray:none;stroke-dashoffset:0;stroke-opacity:1"
       id="rect815-1"
       width="38.099995"
       height="12.586608"
       x="167.19777"
       y="129.59436"
       ry="0"
       inkscape:export-filename="D:\Development\ChampBot\Assets\Sprites\playerCard.png"
       inkscape:export-xdpi="192"
       inkscape:export-ydpi="192" />
    <rect
       style="opacity:1;fill:#a4a1c1;fill-opacity:1;fill-rule:nonzero;stroke:#f0f0ee;stroke-width:0.5291667;stroke-linecap:round;stroke-miterlimit:4;stroke-dasharray:none;stroke-dashoffset:0;stroke-opacity:1"
       id="rect823-2"
       width="9.260417"
       height="12.7"
       x="52.916664"
       y="234.18036"
       inkscape:export-filename="D:\Development\ChampBot\Assets\Sprites\champDisplay.png"
       inkscape:export-xdpi="192"
       inkscape:export-ydpi="192" />
    <text
       xml:space="preserve"
       style="font-style:normal;font-variant:normal;font-weight:normal;font-stretch:normal;font-size:5.64444447px;line-height:1.25;font-family:'Bloomer DEMO';-inkscape-font-specification:'Bloomer DEMO';letter-spacing:0px;word-spacing:0px;fill:#000000;fill-opacity:1;stroke:none;stroke-width:0.5291667;stroke-miterlimit:4;stroke-dasharray:none;stroke-opacity:1"
       x="55.558426"
       y="238.39751"
       id="text842-0"
       inkscape:export-filename="D:\Development\ChampBot\Assets\Sprites\champDisplay.png"
       inkscape:export-xdpi="192"
       inkscape:export-ydpi="192"><tspan
         sodipodi:role="line"
         id="tspan840-1"
         x="55.558426"
         y="238.39751"
         style="font-size:4.23333311px;stroke:none;stroke-width:0.5291667;stroke-miterlimit:4;stroke-dasharray:none;stroke-opacity:1">AV</tspan></text>
    <rect
       style="opacity:1;fill:#a4a1c1;fill-opacity:1;fill-rule:nonzero;stroke:#f0f0ee;stroke-width:0.5291667;stroke-linecap:round;stroke-miterlimit:4;stroke-dasharray:none;stroke-dashoffset:0;stroke-opacity:1"
       id="rect823-7-9"
       width="9.260417"
       height="12.7"
       x="62.177086"
       y="234.18036"
       inkscape:export-filename="D:\Development\ChampBot\Assets\Sprites\champDisplay.png"
       inkscape:export-xdpi="192"
       inkscape:export-ydpi="192" />
    <text
       xml:space="preserve"
       style="font-style:normal;font-variant:normal;font-weight:normal;font-stretch:normal;font-size:5.64444447px;line-height:1.25;font-family:'Bloomer DEMO';-inkscape-font-specification:'Bloomer DEMO';letter-spacing:0px;word-spacing:0px;fill:#000000;fill-opacity:1;stroke:none;stroke-width:0.5291667;stroke-miterlimit:4;stroke-dasharray:none;stroke-opacity:1"
       x="64.563126"
       y="238.3015"
       id="text842-2-3"
       inkscape:export-filename="D:\Development\ChampBot\Assets\Sprites\champDisplay.png"
       inkscape:export-xdpi="192"
       inkscape:export-ydpi="192"><tspan
         sodipodi:role="line"
         id="tspan840-9-5"
         x="64.563126"
         y="238.3015"
         style="font-size:4.23333311px;stroke:none;stroke-width:0.5291667;stroke-miterlimit:4;stroke-dasharray:none;stroke-opacity:1">Def</tspan></text>
    <rect
       style="opacity:1;fill:#a4a19b;fill-opacity:1;fill-rule:nonzero;stroke:#f0f0ee;stroke-width:0.52916667;stroke-linecap:round;stroke-miterlimit:4;stroke-dasharray:none;stroke-dashoffset:0;stroke-opacity:1"
       id="rect819-6"
       width="79.375"
       height="6.3499999"
       x="-26.458334"
       y="240.53036"
       inkscape:export-filename="D:\Development\ChampBot\Assets\Sprites\champDisplay.png"
       inkscape:export-xdpi="192"
       inkscape:export-ydpi="192" />
    <rect
       style="opacity:1;fill:#a4a1c1;fill-opacity:1;fill-rule:nonzero;stroke:#f0f0ee;stroke-width:0.5291667;stroke-linecap:round;stroke-miterlimit:4;stroke-dasharray:none;stroke-dashoffset:0;stroke-opacity:1"
       id="rect823-7-1"
       width="9.260417"
       height="12.7"
       x="71.4375"
       y="234.18037"
       inkscape:export-filename="D:\Development\ChampBot\Assets\Sprites\champDisplay.png"
       inkscape:export-xdpi="192"
       inkscape:export-ydpi="192" />
    <text
       xml:space="preserve"
       style="font-style:normal;font-variant:normal;font-weight:normal;font-stretch:normal;font-size:5.64444447px;line-height:1.25;font-family:'Bloomer DEMO';-inkscape-font-specification:'Bloomer DEMO';letter-spacing:0px;word-spacing:0px;fill:#000000;fill-opacity:1;stroke:none;stroke-width:0.26458332"
       x="115.15524"
       y="201.51965"
       id="text842-2-8"
       inkscape:export-filename="D:\Development\ChampBot\Assets\Sprites\playerCard.png"
       inkscape:export-xdpi="192"
       inkscape:export-ydpi="192"><tspan
         sodipodi:role="line"
         id="tspan840-9-2"
         x="115.15524"
         y="201.51965"
         style="font-size:4.23333311px;stroke-width:0.26458332">Def</tspan></text>
    <text
       xml:space="preserve"
       style="font-style:normal;font-variant:normal;font-weight:normal;font-stretch:normal;font-size:5.55928516px;line-height:1.25;font-family:'Bloomer DEMO';-inkscape-font-specification:'Bloomer DEMO';letter-spacing:0px;word-spacing:0px;fill:#000000;fill-opacity:1;stroke:none;stroke-width:0.5291667;stroke-miterlimit:4;stroke-dasharray:none;stroke-opacity:1"
       x="73.356735"
       y="238.25606"
       id="text842-7-6"
       inkscape:export-filename="D:\Development\ChampBot\Assets\Sprites\champDisplay.png"
       inkscape:export-xdpi="192"
       inkscape:export-ydpi="192"><tspan
         sodipodi:role="line"
         id="tspan840-0-5"
         x="73.356735"
         y="238.25606"
         style="font-size:4.16946316px;stroke:none;stroke-width:0.5291667;stroke-miterlimit:4;stroke-dasharray:none;stroke-opacity:1">spp</tspan></text>
    <rect
       style="opacity:1;fill:#3e374e;fill-opacity:1;fill-rule:nonzero;stroke:#ffdf00;stroke-width:0.52916664;stroke-linecap:round;stroke-miterlimit:4;stroke-dasharray:none;stroke-dashoffset:0;stroke-opacity:1"
       id="rect815-8"
       width="38.099995"
       height="56.620834"
       x="97.613152"
       y="111.5351"
       ry="0"
       inkscape:export-filename="D:\Development\ChampBot\Assets\Sprites\champCard.png"
       inkscape:export-xdpi="192"
       inkscape:export-ydpi="192" />
    <rect
       style="opacity:1;fill:#a4a1c1;fill-opacity:1;fill-rule:nonzero;stroke:none;stroke-width:4.23177099;stroke-linecap:round;stroke-miterlimit:4;stroke-dasharray:none;stroke-dashoffset:0;stroke-opacity:1"
       id="rect823-70"
       width="9.260417"
       height="9.260417"
       x="97.877785"
       y="146.19553"
       inkscape:export-filename="D:\Development\ChampBot\Assets\Sprites\champCard.png"
       inkscape:export-xdpi="192"
       inkscape:export-ydpi="192" />
    <rect
       style="opacity:1;fill:#a4a19b;fill-opacity:1;fill-rule:nonzero;stroke:#ffdf00;stroke-width:0.52916664;stroke-linecap:round;stroke-miterlimit:4;stroke-dasharray:none;stroke-dashoffset:0;stroke-opacity:1"
       id="rect817-6"
       width="38.099995"
       height="6.3499999"
       x="97.613152"
       y="111.5351"
       inkscape:export-filename="D:\Development\ChampBot\Assets\Sprites\champCard.png"
       inkscape:export-xdpi="192"
       inkscape:export-ydpi="192" />
    <rect
       style="opacity:1;fill:#a4a1c1;fill-opacity:1;fill-rule:nonzero;stroke:none;stroke-width:4.23177099;stroke-linecap:round;stroke-miterlimit:4;stroke-dasharray:none;stroke-dashoffset:0;stroke-opacity:1"
       id="rect823-7-10"
       width="9.260417"
       height="9.260417"
       x="126.1882"
       y="146.19551"
       inkscape:export-filename="D:\Development\ChampBot\Assets\Sprites\champCard.png"
       inkscape:export-xdpi="192"
       inkscape:export-ydpi="192" />
    <rect
       style="opacity:1;fill:#a4a19b;fill-opacity:1;fill-rule:nonzero;stroke:#ffdf00;stroke-width:0.52916664;stroke-linecap:round;stroke-miterlimit:4;stroke-dasharray:none;stroke-dashoffset:0;stroke-opacity:1"
       id="rect819-8"
       width="38.099995"
       height="12.7"
       x="97.613152"
       y="155.45593"
       inkscape:export-filename="D:\Development\ChampBot\Assets\Sprites\champCard.png"
       inkscape:export-xdpi="192"
       inkscape:export-ydpi="192" />
    <rect
       style="opacity:1;fill:#a4a1c1;fill-opacity:1;fill-rule:nonzero;stroke:none;stroke-width:3.20036006;stroke-linecap:round;stroke-miterlimit:4;stroke-dasharray:none;stroke-dashoffset:0;stroke-opacity:1"
       id="rect821-6"
       width="15.875"
       height="3.7041667"
       x="108.72571"
       y="149.89964"
       inkscape:export-filename="D:\Development\ChampBot\Assets\Sprites\champCard.png"
       inkscape:export-xdpi="192"
       inkscape:export-ydpi="192" />
    <text
       xml:space="preserve"
       style="font-style:normal;font-variant:normal;font-weight:normal;font-stretch:normal;font-size:5.64444447px;line-height:1.25;font-family:'Bloomer DEMO';-inkscape-font-specification:'Bloomer DEMO';letter-spacing:0px;word-spacing:0px;fill:#000000;fill-opacity:1;stroke:none;stroke-width:0.26458332"
       x="100.51954"
       y="149.61888"
       id="text842-5"
       inkscape:export-filename="D:\Development\ChampBot\Assets\Sprites\champCard.png"
       inkscape:export-xdpi="192"
       inkscape:export-ydpi="192"><tspan
         sodipodi:role="line"
         id="tspan840-09"
         x="100.51954"
         y="149.61888"
         style="font-size:4.23333311px;stroke-width:0.26458332">AV</tspan></text>
    <text
       xml:space="preserve"
       style="font-style:normal;font-variant:normal;font-weight:normal;font-stretch:normal;font-size:5.64444447px;line-height:1.25;font-family:'Bloomer DEMO';-inkscape-font-specification:'Bloomer DEMO';letter-spacing:0px;word-spacing:0px;fill:#000000;fill-opacity:1;stroke:none;stroke-width:0.26458332"
       x="128.57425"
       y="149.40474"
       id="text842-2-80"
       inkscape:export-filename="D:\Development\ChampBot\Assets\Sprites\champCard.png"
       inkscape:export-xdpi="192"
       inkscape:export-ydpi="192"><tspan
         sodipodi:role="line"
         id="tspan840-9-4"
         x="128.57425"
         y="149.40474"
         style="font-size:4.23333311px;stroke-width:0.26458332">Def</tspan></text>
    <text
       xml:space="preserve"
       style="font-style:normal;font-variant:normal;font-weight:normal;font-stretch:normal;font-size:4.46183586px;line-height:1.25;font-family:'Bloomer DEMO';-inkscape-font-specification:'Bloomer DEMO';letter-spacing:0px;word-spacing:0px;fill:#000000;fill-opacity:1;stroke:none;stroke-width:0.20914853"
       x="119.19672"
       y="152.83762"
       id="text842-7-5"
       inkscape:export-filename="D:\Development\ChampBot\Assets\Sprites\champCard.png"
       inkscape:export-xdpi="192"
       inkscape:export-ydpi="192"><tspan
         sodipodi:role="line"
         id="tspan840-0-7"
         x="119.19672"
         y="152.83762"
         style="font-size:3.34637642px;stroke-width:0.20914853">spp</tspan></text>
    <rect
       style="opacity:1;fill:#72c8ad;fill-opacity:1;fill-rule:nonzero;stroke:none;stroke-width:0.63146669;stroke-linecap:round;stroke-miterlimit:4;stroke-dasharray:none;stroke-dashoffset:0;stroke-opacity:1"
       id="rect4554"
       width="38.8209"
       height="7.8844509"
       x="34.811852"
       y="213.61189" />
    <rect
       style="opacity:1;fill:#a4a19b;fill-opacity:1;fill-rule:nonzero;stroke:#f0f0ee;stroke-width:0.5291667;stroke-linecap:round;stroke-miterlimit:4;stroke-dasharray:none;stroke-dashoffset:0;stroke-opacity:1"
       id="rect817-0-6"
       width="26.168633"
       height="6.6123185"
       x="0.41279396"
       y="212.17664"
       inkscape:export-filename="D:\Development\ChampBot\Assets\Sprites\challengerListItem.png"
       inkscape:export-xdpi="192"
       inkscape:export-ydpi="192"
       ry="1.8040693" />
    <ellipse
       style="opacity:1;fill:none;fill-opacity:1;fill-rule:nonzero;stroke:#000000;stroke-width:1.32291663;stroke-linecap:round;stroke-linejoin:round;stroke-miterlimit:4;stroke-dasharray:none;stroke-dashoffset:0;stroke-opacity:1"
       id="path4556"
       cx="50.979538"
       cy="94.782738"
       rx="9.7328863"
       ry="7.4650292" />
    <path
       style="fill:none;stroke:#000000;stroke-width:0.26458332px;stroke-linecap:butt;stroke-linejoin:miter;stroke-opacity:1"
       d="m 101.29366,169.45208 c -0.0509,-0.29754 -0.01,-0.60789 0.10066,-0.88876 0.11062,-0.28086 0.28932,-0.53267 0.50621,-0.74262 0.4338,-0.4199 1.00766,-0.66674 1.58942,-0.82815 1.64429,-0.45622 3.39547,-0.2904 5.07975,-0.56428 2.00637,-0.32625 3.92095,-1.27556 5.95313,-1.22842 1.70148,0.0395 3.31445,0.77804 5.00818,0.94494 1.39687,0.13765 2.801,-0.11768 4.17168,-0.42003 1.37068,-0.30236 2.74143,-0.65443 4.1438,-0.7139 2.33626,-0.0991 4.66658,0.61828 6.99256,0.37798 1.53737,-0.15883 3.0051,-0.73057 4.53571,-0.94494 0.76464,-0.10709 1.5512,-0.12305 2.30188,0.0576 0.75068,0.1806 1.46584,0.56971 1.95036,1.17086 0.33443,0.41493 0.55011,0.9185 0.66018,1.43993 0.11006,0.52144 0.11722,1.06099 0.0624,1.5911 -0.1096,1.0602 -0.46181,2.07762 -0.72259,3.11108 -0.56165,2.22583 -0.7001,4.5332 -1.03944,6.80358 -0.21559,1.44241 -0.51382,2.89463 -0.37798,4.34672 0.15037,1.60738 0.82545,3.12455 1.03944,4.7247 0.27035,2.02158 -0.2057,4.05961 -0.66146,6.04762 -0.44128,1.92487 -0.86914,3.89477 -0.66146,5.85863 0.15148,1.43241 0.63622,2.80606 1.13393,4.15774 0.36412,0.98889 0.73856,1.97919 0.95479,3.01056 0.21623,1.03137 0.26909,2.11534 -0.01,3.13155 -0.4039,1.47147 -1.46593,2.69192 -1.88988,4.15774 -0.26035,0.90018 -0.26784,1.85566 -0.1812,2.78872 0.0867,0.93305 0.26497,1.85529 0.37019,2.78643 0.0777,0.68723 0.11524,1.38397 0.0225,2.06933 -0.0927,0.68536 -0.32163,1.36238 -0.73663,1.91564 -0.59138,0.78839 -1.52266,1.27136 -2.48459,1.48576 -0.96194,0.2144 -1.96103,0.18338 -2.9434,0.10442 -2.5547,-0.20534 -5.09192,-0.72742 -7.65401,-0.66146 -2.14829,0.0553 -4.27722,0.52412 -6.4256,0.47247 -1.34702,-0.0324 -2.6798,-0.26906 -4.02055,-0.40287 -1.34075,-0.1338 -2.71741,-0.16161 -4.01144,0.21388 -0.98414,0.28556 -1.88578,0.79398 -2.81507,1.22583 -0.92929,0.43186 -1.92499,0.79523 -2.94907,0.75855 -0.99372,-0.0356 -1.94759,-0.45173 -2.74598,-1.04445 -0.79838,-0.59272 -1.45454,-1.356 -2.05029,-2.15213 -0.8676,-1.15943 -1.64053,-2.45332 -1.81831,-3.89047 -0.18556,-1.49998 0.29333,-2.99559 0.80034,-4.41942 0.50702,-1.42384 1.05651,-2.87919 1.01797,-4.39011 -0.0487,-1.90797 -1.02246,-3.64953 -1.62932,-5.45907 -0.66006,-1.96817 -0.89195,-4.07068 -0.75596,-6.14212 0.1809,-2.75562 1.00182,-5.46001 0.94494,-8.22098 -0.0338,-1.64165 -0.37861,-3.27445 -0.28348,-4.91369 0.0589,-1.01504 0.28555,-2.01163 0.45508,-3.01415 0.16952,-1.00251 0.28201,-2.03105 0.11189,-3.03347 -0.15811,-0.93164 -0.55352,-1.80319 -0.85447,-2.69895 -0.30094,-0.89576 -0.50908,-1.86506 -0.27946,-2.7817 0.14169,-0.56562 0.4416,-1.07639 0.67563,-1.61047 0.11701,-0.26704 0.21837,-0.54255 0.27369,-0.8288 0.0553,-0.28626 0.0635,-0.58449 -0.004,-0.86802 -0.0809,-0.3376 -0.26472,-0.63983 -0.4411,-0.93883 -0.17639,-0.299 -0.35081,-0.60888 -0.40935,-0.95106 z"
       id="path4558"
       inkscape:connector-curvature="0"
       inkscape:path-effect="#path-effect4560"
       inkscape:original-d="m 101.29366,169.45208 c -0.28374,-0.62969 1.46446,-1.63995 2.19629,-2.45953 0.73183,-0.81958 3.38677,-0.37645 5.07975,-0.56428 1.69299,-0.18782 3.96902,-0.81921 5.95313,-1.22842 1.98411,-0.40921 3.33905,0.6297 5.00818,0.94494 1.66913,0.31525 5.54392,-0.75621 8.31548,-1.13393 2.77156,-0.37771 4.66197,0.25172 6.99256,0.37798 2.33059,0.12626 3.02407,-0.63023 4.53571,-0.94494 1.51164,-0.31472 2.83509,0.81868 4.25224,1.22842 1.41714,0.40974 2.6e-4,4.09448 0,6.14211 -2.7e-4,2.04764 -0.6927,4.53545 -1.03944,6.80358 -0.34674,2.26812 -0.25172,2.89755 -0.37798,4.34672 -0.12625,1.44918 0.69322,3.14954 1.03944,4.7247 0.34621,1.57517 -0.44071,4.03149 -0.66146,6.04762 -0.22075,2.01614 -0.44071,3.90549 -0.66146,5.85863 -0.22075,1.95315 0.75622,2.77156 1.13393,4.15774 0.37771,1.38618 0.63022,4.09448 0.94494,6.14211 0.31471,2.04764 -1.25966,2.77157 -1.88988,4.15774 -0.63022,1.38618 0.12626,3.71651 0.18899,5.57515 0.0627,1.85865 -0.47582,2.65638 -0.71413,3.98497 -0.23831,1.32858 -3.61839,1.05985 -5.42799,1.59018 -1.80959,0.53033 -5.10241,-0.44124 -7.65401,-0.66146 -2.55161,-0.22022 -4.28347,0.31472 -6.4256,0.47247 -2.14213,0.15776 -5.3544,-0.12625 -8.03199,-0.18899 -2.6776,-0.0627 -3.8425,1.32266 -5.76414,1.98438 -1.92164,0.66172 -3.19725,-2.13132 -4.79627,-3.19658 -1.59902,-1.06527 -1.21194,-2.59391 -1.81831,-3.89047 -0.60637,-1.29656 1.21247,-5.87329 1.81831,-8.80953 0.60584,-2.93625 -1.08595,-3.63965 -1.62932,-5.45907 -0.54338,-1.81943 -0.50371,-4.09501 -0.75596,-6.14212 -0.25225,-2.0471 0.63023,-5.48092 0.94494,-8.22098 0.31472,-2.74006 -0.18872,-3.27606 -0.28348,-4.91369 -0.0948,-1.63763 0.37824,-4.03201 0.56697,-6.04762 0.18872,-2.01561 -0.75569,-3.65403 -1.13393,-5.48065 -0.37824,-1.82663 0.63022,-2.20513 0.94494,-3.30729 0.31471,-1.10217 -0.5667,-1.26019 -0.85045,-1.88989 z" />
    <path
       style="fill:#8b374e;fill-opacity:1;stroke:#000000;stroke-width:0.26458332px;stroke-linecap:butt;stroke-linejoin:miter;stroke-opacity:1"
       d="m -24.356883,96.544052 c -1.525301,-0.0419 -3.017391,0.41976 -4.536157,0.56689 -1.56945,0.15204 -3.148655,-0.0333 -4.72426,-0.0946 -1.231369,-0.0479 -2.471024,-0.0193 -3.685562,0.18914 -0.794793,0.13642 -1.574358,0.3491 -2.36678,0.49868 -0.792425,0.14959 -1.607595,0.23582 -2.405023,0.11575 -0.960959,-0.14469 -1.866291,-0.58376 -2.834968,-0.66146 -1.267055,-0.10165 -2.508491,0.4233 -3.779615,0.4253 -0.956911,10e-4 -1.887263,-0.29288 -2.834968,-0.4253 -0.666428,-0.0931 -1.349992,-0.10548 -2.008148,0.0346 -0.658154,0.14009 -1.29118,0.43872 -1.771468,0.91002 -0.438443,0.43024 -0.739381,0.99902 -0.848527,1.60352 -0.109145,0.604498 -0.02621,1.241938 0.234096,1.798338 0.421574,0.31607 0.755409,0.74854 0.953945,1.23661 0.198543,0.48807 0.261583,1.03021 0.180353,1.55081 -0.108553,0.6957 -0.462447,1.32484 -0.709001,1.98438 -0.630212,1.68581 -0.553133,3.544 -0.425297,5.33921 0.143822,2.01974 0.340871,4.03549 0.566889,6.04769 0.248639,2.21357 0.532682,4.44329 0.330729,6.66161 -0.102394,1.12474 -0.328787,2.2346 -0.472321,3.35483 -0.3067,2.39366 -0.232609,4.81726 -0.33073,7.2285 -0.06088,1.49607 -0.188288,2.99425 -0.09457,4.48862 0.08353,1.33201 0.341972,2.64603 0.519864,3.96875 0.256889,1.91009 0.345779,3.85313 0.09457,5.76398 -0.217326,1.65311 -0.688355,3.30767 -0.47232,4.96094 0.143367,1.09718 0.609346,2.17317 1.416965,2.92954 0.815393,0.76365 1.919555,1.1556 3.024105,1.32292 2.505695,0.37957 5.034638,-0.29848 7.559228,-0.51987 1.8855,-0.16534 3.788675,-0.0757 5.669939,-0.2837 1.843879,-0.2039 3.708313,-0.69243 5.527828,-0.33073 1.320407,0.26248 2.518911,0.9583 3.827157,1.27589 1.846042,0.44814 3.777092,0.11968 5.669421,-0.047 1.665723,-0.14674 3.340456,-0.16597 5.00848,-0.2837 0.949024,-0.067 1.908243,-0.16893 2.799312,-0.50229 0.891069,-0.33337 1.718202,-0.92406 2.161625,-1.76579 0.340751,-0.64683 0.435025,-1.39918 0.403077,-2.12958 -0.03195,-0.73039 -0.183753,-1.44962 -0.309026,-2.1699 -0.284643,-1.63664 -0.435669,-3.30674 -0.283186,-4.96093 0.125386,-1.36025 0.455055,-2.69833 0.519865,-4.06281 0.06804,-1.43245 -0.15731,-2.86962 -0.04754,-4.29947 0.120536,-1.57012 0.643067,-3.10328 0.614433,-4.67776 -0.02254,-1.23928 -0.386687,-2.44856 -0.472839,-3.68504 -0.103004,-1.47834 0.192768,-2.96293 0.09457,-4.44159 -0.141662,-2.1331 -1.094261,-4.15028 -1.228348,-6.28385 -0.09785,-1.55701 0.244326,-3.10385 0.56689,-4.63021 0.259684,-1.22882 0.509513,-2.483 0.378272,-3.73208 -0.07615,-0.72478 -0.279206,-1.4294 -0.450102,-2.13785 -0.170896,-0.70844 -0.311292,-1.43474 -0.258899,-2.16162 0.08636,-1.1981 0.683292,-2.28855 1.134298,-3.40186 0.315247,-0.77819 0.565374,-1.59661 0.583427,-2.43603 0.01805,-0.839428 -0.215959,-1.707678 -0.772563,-2.336288 -0.410935,-0.4641 -0.974996,-0.77436 -1.567346,-0.95705 -0.59235,-0.18273 -1.215201,-0.2447 -1.834514,-0.2713 -1.653465,-0.071 -3.317741,0.10264 -4.960937,-0.0946 -1.122062,-0.13467 -2.224629,-0.44132 -3.354317,-0.47232 z m 0.06459,3.08663 c 1.221455,-10e-4 2.445409,0.15421 3.657658,0.32556 0.853121,0.120598 1.712258,0.249198 2.572453,0.199988 0.308704,-0.0177 0.617735,-0.0582 0.926042,-0.0346 0.308306,0.0236 0.623347,0.11917 0.844393,0.33538 0.113474,0.11099 0.198194,0.25005 0.253214,0.39894 0.05502,0.14889 0.08109,0.30747 0.0863,0.46612 0.01042,0.3173 -0.06186,0.63101 -0.13901,0.93896 -0.181197,0.72324 -0.392603,1.43996 -0.534334,2.17196 -0.199975,1.0328 -0.25917,2.09589 -0.133842,3.14038 0.11151,0.92934 0.367806,1.83934 0.434599,2.77296 0.113461,1.58594 -0.322066,3.15142 -0.635104,4.7103 -0.238482,1.1876 -0.407736,2.399 -0.33383,3.60805 0.07951,1.30074 0.438326,2.56725 0.835092,3.80855 0.19089,0.59721 0.391315,1.19296 0.519865,1.80661 0.128548,0.61366 0.184145,1.25008 0.08165,1.86862 -0.149916,0.90471 -0.62612,1.72166 -0.868681,2.60605 -0.315113,1.14891 -0.21753,2.40614 0.270785,3.49281 0.297296,0.964 0.483682,1.962 0.555005,2.96829 0.05459,0.77027 0.04176,1.54402 0,2.3151 -0.07849,1.44945 -0.258669,2.90766 -0.0708,4.34703 0.100871,0.7728 0.307369,1.53574 0.306958,2.3151 -4.68e-4,0.8871 -0.268258,1.74887 -0.42478,2.62206 -0.207789,1.15918 -0.218852,2.34912 -0.09457,3.5202 0.08619,0.81218 0.236682,1.61752 0.283187,2.43293 0.01272,0.223 0.01773,0.44796 -0.01964,0.66817 -0.03736,0.22022 -0.119172,0.43729 -0.26355,0.60772 -0.1252,0.14779 -0.293895,0.25542 -0.475423,0.32297 -0.181528,0.0676 -0.375813,0.0958 -0.569474,0.0992 -0.387324,0.007 -0.768926,-0.084 -1.152385,-0.13901 -1.294629,-0.18566 -2.609117,0.0376 -3.897953,0.25994 -1.539923,0.26566 -3.091202,0.53183 -4.653463,0.49609 -1.551636,-0.0355 -3.081666,-0.36814 -4.630208,-0.47232 -1.731891,-0.11651 -3.468575,0.0536 -5.197099,0.21239 -1.791043,0.16457 -3.589468,0.31708 -5.386235,0.23616 -1.678951,-0.0756 -3.355277,-0.35483 -5.031732,-0.23616 -1.058746,0.075 -2.104546,0.30817 -3.1657,0.33073 -0.27614,0.006 -0.554752,-0.003 -0.824238,-0.0631 -0.269489,-0.0605 -0.530942,-0.17593 -0.734841,-0.36225 -0.178696,-0.16329 -0.307255,-0.3755 -0.397906,-0.59996 -0.09065,-0.22445 -0.145257,-0.46183 -0.192755,-0.69919 -0.484158,-2.41954 -0.266025,-4.92017 0.02377,-7.3706 0.202549,-1.71271 0.439439,-3.42575 0.472321,-5.15008 0.02021,-1.05956 -0.03716,-2.12012 -0.171048,-3.17138 -0.455774,-1.88465 -0.593328,-3.846 -0.405662,-5.77588 0.141799,-1.45815 0.466929,-2.89174 0.668177,-4.34288 0.188711,-1.36073 0.26811,-2.73556 0.267168,-4.10931 -0.0015,-2.15338 -0.199943,-4.30133 -0.367419,-6.44819 -0.125156,-1.60436 -0.233175,-3.2101 -0.40101,-4.81056 -0.150773,-1.43776 -0.346901,-2.91513 0.03359,-4.30981 0.131199,-0.48091 0.32839,-0.94108 0.490926,-1.41232 0.162534,-0.47125 0.291603,-0.9626 0.277501,-1.46089 -0.01372,-0.48494 -0.162319,-0.95525 -0.323493,-1.41284 -0.161174,-0.45757 -0.337709,-0.91428 -0.411861,-1.39371 -0.06046,-0.39091 -0.05026,-0.79733 0.07183,-1.17357 0.122084,-0.37625 0.36177,-0.7206 0.696598,-0.93121 0.385349,-0.242378 0.862906,-0.292388 1.317233,-0.263548 0.454327,0.0288 0.901483,0.129578 1.355474,0.163298 1.090848,0.081 2.184347,-0.226588 3.274218,-0.133328 0.96511,0.0826 1.879169,0.475828 2.83962,0.601518 1.495451,0.1957 2.987233,-0.26446 4.476729,-0.50126 1.357114,-0.215748 2.742947,-0.246438 4.109309,-0.100258 1.348977,0.144318 2.686222,0.460068 4.042648,0.434088 1.565105,-0.03 3.085874,-0.513888 4.643644,-0.668178 0.406113,-0.0402 0.812929,-0.0575 1.22008,-0.0579 z"
       id="path4570"
       inkscape:connector-curvature="0" />
    <path
       style="opacity:1;fill:#55374e;fill-opacity:1;fill-rule:nonzero;stroke:none;stroke-width:1.10346091;stroke-linecap:round;stroke-linejoin:round;stroke-miterlimit:4;stroke-dasharray:none;stroke-dashoffset:0;stroke-opacity:1"
       d="m 66.157626,103.06176 v 59.26666 h 41.537324 v -59.26666 z m 2.532764,2.53276 h 36.47179 v 54.20114 H 68.69039 Z"
       id="rect4575-2"
       inkscape:connector-curvature="0" />
  </g>
</svg>
